{"title":"Sleepy Hollow S03E09 One Life 1080P WEB-DL DD5 1 H 264","uid":13456161,"size":1854058549,"categoryP":"video","categoryS":"hd___tv_shows","magnet":"?xt=urn:btih:d7a50946aa7c022719cf99fdb3938c47130a7d5b&amp;dn=Sleepy+Hollow+S03E09+One+Life+1080P+WEB-DL+DD5+1+H+264&amp;tr=udp%3A%2F%2Ftracker.leechers-paradise.org%3A6969&amp;tr=udp%3A%2F%2Fzer0day.ch%3A1337&amp;tr=udp%3A%2F%2Fopen.demonii.com%3A1337&amp;tr=udp%3A%2F%2Ftracker.coppersurfer.tk%3A6969&amp;tr=udp%3A%2F%2Fexodus.desync.com%3A6969","seeders":0,"leechers":0,"uploader":"jmanwf","files":2,"time":1454846126,"description":"Following Abbie’s huge sacrifice, Crane and Jennie find themselves at a loss. In an effort to save Abbie, Crane forms and unlikely partnership and Jenny confronts a former foe.\r\n\r\n\r\n\r\nVideo\r\nID : 2\r\nFormat : AVC\r\nFormat/Info : Advanced Video Codec\r\nFormat profile :   \r\nFormat settings, CABAC : Yes\r\nFormat settings, ReFrames : 4 frames\r\nCodec ID : avc1\r\nCodec ID/Info : Advanced Video Coding\r\nDuration : 44mn 25s\r\nBit rate : 5 051 Kbps\r\nWidth : 1 920 pixels\r\nHeight : 1 080 pixels\r\nDisplay aspect ratio : 16:9\r\nFrame rate mode : Constant\r\nFrame rate : 23.976 fps\r\nColor space : YUV\r\nChroma subsampling : 4:2:0\r\nBit depth : 8 bits\r\nScan type : Progressive\r\nBits/(Pixel*Frame) : 0.102\r\nStream size : 1.57 GiB (91%)\r\nLanguage : English\r\nEncoded date : UTC 2016-02-07 05:06:33\r\nTagged date : UTC 2016-02-07 05:10:47\r\nColor range : Limited\r\nColor primaries : BT.709\r\nTransfer characteristics : BT.709\r\nMatrix coefficients : BT.709\r\n\r\nAudio #1\r\nID : 1\r\nFormat : AAC\r\nFormat/Info : Advanced Audio Codec\r\nFormat profile : LC\r\nCodec ID : 40\r\nDuration : 44mn 25s\r\nBit rate mode : Variable\r\nBit rate : 126 Kbps\r\nMaximum bit rate : 230 Kbps\r\nChannel(s) : 2 channels\r\nChannel positions : Front: L R\r\nSampling rate : 48.0 KHz\r\nCompression mode : Lossy\r\nStream size : 40.0 MiB (2%)\r\nLanguage : English\r\nEncoded date : UTC 2016-02-07 05:06:33\r\nTagged date : UTC 2016-02-07 05:10:47\r\n\r\nAudio #2\r\nID : 3\r\nFormat : AC-3\r\nFormat/Info : Audio Coding 3\r\nMode extension : CM (complete main)\r\nFormat settings, Endianness : Big\r\nCodec ID : ac-3\r\nDuration : 44mn 25s\r\nBit rate mode : Constant\r\nBit rate : 384 Kbps\r\nChannel(s) : 6 channels\r\nChannel positions : Front: L C R, Side: L R, LFE\r\nSampling rate : 48.0 KHz\r\nBit depth : 16 bits\r\nCompression mode : Lossy\r\nStream size : 122 MiB (7%)\r\nLanguage : English\r\nEncoded date : UTC 2016-02-07 05:06:33\r\nTagged date : UTC 2016-02-07 05:10:47\r\n\r\nText\r\nID : 4-CC1\r\nFormat : EIA-608\r\nMuxing mode : Final Cut\r\nCodec ID : c608\r\nDuration : 44mn 23s\r\nBit rate mode : Constant\r\nStream size : 0.00 Byte (0%)\r\nLanguage : English\r\nEncoded date : UTC 2016-02-07 05:06:33\r\nTagged date : UTC 2016-02-07 05:06:43","torrent":{"xt":"urn:btih:d7a50946aa7c022719cf99fdb3938c47130a7d5b","amp;dn":"Sleepy+Hollow+S03E09+One+Life+1080P+WEB-DL+DD5+1+H+264","amp;tr":["udp%3A%2F%2Ftracker.leechers-paradise.org%3A6969","udp%3A%2F%2Fzer0day.ch%3A1337","udp%3A%2F%2Fopen.demonii.com%3A1337","udp%3A%2F%2Ftracker.coppersurfer.tk%3A6969","udp%3A%2F%2Fexodus.desync.com%3A6969"],"infoHash":"d7a50946aa7c022719cf99fdb3938c47130a7d5b","infoHashBuffer":{"type":"Buffer","data":[215,165,9,70,170,124,2,39,25,207,153,253,179,147,140,71,19,10,125,91]},"announce":[],"urlList":[]}}